<svg xmlns="http://www.w3.org/2000/svg" width="819" height="1024" viewBox="0 0 819 1024"><path d="M654.044 263.724L311.406 483.807c-9.624 6.419-14.116 16.043-14.116 26.306s4.492 19.886 14.116 26.306l343.277 220.722c20.535 13.477 48.12-1.283 48.12-26.306V290.031c-.639-25.025-27.594-39.783-48.77-26.306zM233.766 257.946h-44.915c-34.655 0-62.885 28.233-62.885 62.885v378.568c0 34.655 28.233 62.885 62.885 62.885h44.915c34.655 0 62.885-28.233 62.885-62.885V320.831c0-34.655-28.233-62.885-62.885-62.885z"/></svg>