<?xml version="1.0" encoding="utf-8"?>
<!-- Generated by IcoMoon.io -->
<!DOCTYPE svg PUBLIC "-//W3C//DTD SVG 1.1//EN" "http://www.w3.org/Graphics/SVG/1.1/DTD/svg11.dtd">
<svg version="1.1" xmlns="http://www.w3.org/2000/svg" xmlns:xlink="http://www.w3.org/1999/xlink" width="819" height="1024" viewBox="0 0 819 1024">
<g id="icomoon-ignore">
</g>
<path d="M507.094 814.755c13.33 0 26.618-5.179 36.834-15.395l136.231-136.030c13.976-14.827 24.43-44.527 0-73.668l-136.231-136.231c-20.431-20.431-53.239-20.431-73.668 0s-20.431 53.435 0 73.859l46.967 46.967h-208.92v-268.557c0-28.885-23.142-52.229-52.046-52.229s-52.229 23.35-52.229 52.229v320.792c0 28.885 23.35 52.046 52.229 52.046h261.155l-47.17 47.17c-20.431 20.431-20.431 53.239 0 73.668 10.216 10.216 23.504 15.395 36.834 15.395z"></path>
</svg>
