<svg xmlns="http://www.w3.org/2000/svg" width="819" height="1024" viewBox="0 0 819 1024"><path d="M807.303 756.637l-351.17-607.966a53.4 53.4 0 0 0-46.308-26.702h-.416c-19.112 0-36.699 10.12-46.308 26.702L11.915 756.637c-9.564 16.643-9.564 37.104 0 53.706 9.511 16.61 27.209 26.775 46.525 26.775h702.348c19.308 0 37.014-10.165 46.525-26.775 9.564-16.598 9.564-37.087-.008-53.706zm-717.884 8.919l320.193-554.297 320.193 554.297H89.423z"/><path d="M540.178 663.195l-72.859-74.216 70.995-71.763-57.871-57.242-70.161 70.926-70.746-72.058-58.075 57.025 71.584 72.904-73.991 74.804 57.863 57.242 73.157-73.946 72.033 73.353z"/></svg>