<?xml version="1.0" encoding="utf-8"?>
<!-- Generated by IcoMoon.io -->
<!DOCTYPE svg PUBLIC "-//W3C//DTD SVG 1.1//EN" "http://www.w3.org/Graphics/SVG/1.1/DTD/svg11.dtd">
<svg version="1.1" xmlns="http://www.w3.org/2000/svg" xmlns:xlink="http://www.w3.org/1999/xlink" width="819" height="1024" viewBox="0 0 819 1024">
<g id="icomoon-ignore">
</g>
<path d="M807.303 772.637l-351.17-607.966c-9.601-16.582-27.188-26.702-46.308-26.702-0.074 0-0.143 0-0.208 0s-0.143 0-0.208 0c-19.112 0-36.699 10.12-46.308 26.702l-351.186 607.966c-9.564 16.643-9.564 37.104 0 53.706 9.511 16.61 27.209 26.775 46.525 26.775h702.348c19.308 0 37.014-10.165 46.525-26.775 9.564-16.598 9.564-37.087-0.008-53.706zM89.419 781.556l320.193-554.297 320.193 554.297h-640.382z"></path>
<path d="M540.178 679.195l-72.859-74.216 70.995-71.763-57.871-57.242-70.161 70.926-70.746-72.058-58.075 57.025 71.584 72.904-73.991 74.804 57.863 57.242 73.157-73.946 72.033 73.353z"></path>
</svg>
