<svg xmlns="http://www.w3.org/2000/svg" width="819" height="1024" viewBox="0 0 819 1024"><path d="M640.327 412.161c-45.569 0-82.591 37.025-82.591 85.44s37.025 85.44 82.591 85.44c45.569 0 82.591-37.025 82.591-85.44s-37.025-85.44-82.591-85.44zm-230.688 0c-45.569 0-82.591 37.025-82.591 85.44s37.025 85.44 82.591 85.44c45.569 0 82.591-37.025 82.591-85.44s-37.025-85.44-82.591-85.44zm-230.688 0c-45.569 0-82.591 37.025-82.591 85.44s37.025 85.44 82.591 85.44c45.569 0 82.591-37.025 82.591-85.44s-37.025-85.44-82.591-85.44z"/></svg>