<svg xmlns="http://www.w3.org/2000/svg" width="819" height="1024" viewBox="0 0 819 1024"><path d="M409.618 681.692c114.138 0 206.667-92.529 206.667-206.667V309.692c0-114.138-92.529-206.667-206.667-206.667s-206.667 92.529-206.667 206.667v165.333c0 114.138 92.529 206.667 206.667 206.667z"/><path d="M368.285 844.589v85.104h82.667v-85.104c185.707-20.667 330.667-178.44 330.667-369.563v-82.667h-82.667v82.667c0 159.547-129.83 289.333-289.333 289.333S120.286 634.572 120.286 475.026v-82.667H37.619v82.667c0 191.124 144.96 348.94 330.667 369.563z"/></svg>