<svg xmlns="http://www.w3.org/2000/svg" width="819" height="1024" viewBox="0 0 819 1024"><path d="M735.87 136.168H83.52c-13.606 0-24.652 11.046-24.652 24.652V813.2c0 13.606 11.046 24.652 24.652 24.652h652.35c13.606 0 24.652-11.046 24.652-24.652V160.82c0-13.606-11.046-24.652-24.652-24.652zM488.826 544.546h26.578v244.002H303.985V544.576h26.587c13.606 0 24.652-11.046 24.652-24.652v-334.43h108.928v334.4c0 13.606 11.046 24.652 24.652 24.652zM108.172 185.472h95.248v334.43c0 13.606 11.046 24.652 24.652 24.652h26.587v243.972H108.172V185.472zm603.046 603.054H564.739V544.524h26.578c13.606 0 24.652-11.046 24.652-24.652v-334.4h95.248v603.054z"/></svg>