<?xml version="1.0" encoding="utf-8"?>
<!-- Generated by IcoMoon.io -->
<!DOCTYPE svg PUBLIC "-//W3C//DTD SVG 1.1//EN" "http://www.w3.org/Graphics/SVG/1.1/DTD/svg11.dtd">
<svg version="1.1" xmlns="http://www.w3.org/2000/svg" xmlns:xlink="http://www.w3.org/1999/xlink" width="819" height="1024" viewBox="0 0 819 1024">
<g id="icomoon-ignore">
</g>
<path d="M164.956 760.276l342.638-220.083c9.624-6.419 14.116-16.043 14.116-26.306s-4.492-19.886-14.116-26.306l-343.277-220.722c-20.535-13.477-48.12 1.283-48.12 26.306v440.804c0.639 25.025 27.594 39.783 48.77 26.306z"></path>
<path d="M585.234 766.054h44.915c34.655 0 62.885-28.233 62.885-62.885v-378.568c0-34.655-28.233-62.885-62.885-62.885h-44.915c-34.655 0-62.885 28.233-62.885 62.885v378.568c0 34.655 28.233 62.885 62.885 62.885z"></path>
</svg>
