<?xml version="1.0" encoding="utf-8"?>
<!-- Generated by IcoMoon.io -->
<!DOCTYPE svg PUBLIC "-//W3C//DTD SVG 1.1//EN" "http://www.w3.org/Graphics/SVG/1.1/DTD/svg11.dtd">
<svg version="1.1" xmlns="http://www.w3.org/2000/svg" xmlns:xlink="http://www.w3.org/1999/xlink" width="819" height="1024" viewBox="0 0 819 1024">
<g id="icomoon-ignore">
</g>
<path d="M51.2 608.387c-18.876 0-34.133-15.292-34.133-34.133v-170.667c0-18.842 15.258-34.133 34.133-34.133s34.133 15.292 34.133 34.133v170.667c0 18.842-15.258 34.133-34.133 34.133z"></path>
<path d="M153.6 744.92c-18.876 0-34.133-15.292-34.133-34.133v-443.734c0-18.842 15.258-34.133 34.133-34.133s34.133 15.292 34.133 34.133v443.734c0 18.842-15.258 34.133-34.133 34.133z"></path>
<path d="M256 881.453c-18.876 0-34.133-15.292-34.133-34.133v-716.8c0-18.842 15.258-34.133 34.133-34.133s34.133 15.292 34.133 34.133v716.8c0 18.842-15.258 34.133-34.133 34.133z"></path>
<path d="M358.4 847.32c-18.876 0-34.133-15.292-34.133-34.133v-648.533c0-18.842 15.258-34.133 34.133-34.133s34.133 15.292 34.133 34.133v648.533c0 18.842-15.258 34.133-34.133 34.133z"></path>
<path d="M460.798 710.787c-18.876 0-34.133-15.292-34.133-34.133v-375.467c0-18.842 15.258-34.133 34.133-34.133s34.133 15.292 34.133 34.133v375.467c0 18.842-15.258 34.133-34.133 34.133z"></path>
<path d="M563.202 847.32c-18.876 0-34.133-15.292-34.133-34.133v-648.533c0-18.842 15.258-34.133 34.133-34.133s34.133 15.292 34.133 34.133v648.533c0 18.842-15.258 34.133-34.133 34.133z"></path>
<path d="M665.6 710.787c-18.876 0-34.133-15.292-34.133-34.133v-375.467c0-18.842 15.258-34.133 34.133-34.133s34.133 15.292 34.133 34.133v375.467c0 18.842-15.258 34.133-34.133 34.133z"></path>
<path d="M768 608.387c-18.876 0-34.133-15.292-34.133-34.133v-170.667c0-18.842 15.258-34.133 34.133-34.133s34.133 15.292 34.133 34.133v170.667c0 18.842-15.258 34.133-34.133 34.133z"></path>
</svg>
