<?xml version="1.0" encoding="utf-8"?>
<!-- Generated by IcoMoon.io -->
<!DOCTYPE svg PUBLIC "-//W3C//DTD SVG 1.1//EN" "http://www.w3.org/Graphics/SVG/1.1/DTD/svg11.dtd">
<svg version="1.1" xmlns="http://www.w3.org/2000/svg" xmlns:xlink="http://www.w3.org/1999/xlink" width="851" height="1024" viewBox="0 0 851 1024">
<g id="icomoon-ignore">
</g>
<path d="M831.019 413.071c-13.274-16.986-33.621-26.933-55.195-26.933v-140.089c0-38.664-31.379-70.045-70.045-70.045h-140.089c-38.664 0-70.045 31.379-70.045 70.045h-350.222c-38.664 0-70.045 31.379-70.045 70.045v420.267c0 38.664 31.379 70.045 70.045 70.045h560.355c32.466 0 59.503-22.205 67.453-52.149 0.105-0.315 0.456-0.595 0.525-0.875l70.045-280.178c5.218-20.944 0.49-43.147-12.783-60.133zM145.424 316.095h420.267v-70.045h140.089v140.089h-490.311c-32.15 0-60.168 21.889-67.943 53.059l-2.101 8.336v-131.438zM705.781 736.361h-560.355l70.045-280.178h560.355l-70.045 280.178z"></path>
</svg>
