<?xml version="1.0" encoding="utf-8"?>
<!-- Generated by IcoMoon.io -->
<!DOCTYPE svg PUBLIC "-//W3C//DTD SVG 1.1//EN" "http://www.w3.org/Graphics/SVG/1.1/DTD/svg11.dtd">
<svg version="1.1" xmlns="http://www.w3.org/2000/svg" xmlns:xlink="http://www.w3.org/1999/xlink" width="819" height="1024" viewBox="0 0 819 1024">
<g id="icomoon-ignore">
</g>
<path d="M147.010 283.438c0-29.495 23.924-53.417 53.432-53.417h112.295c29.495 0 53.432 23.924 53.432 53.417v424.358c0 29.505-23.924 53.425-53.432 53.425h-112.295c-29.495 0-53.432-23.924-53.432-53.425v-424.358z"></path>
<path d="M452.99 283.438c0-29.495 23.924-53.417 53.399-53.417h112.302c29.495 0 53.409 23.924 53.409 53.417v424.358c0 29.505-23.912 53.425-53.409 53.425h-112.302c-29.49 0-53.409-23.924-53.409-53.425v-424.358z"></path>
</svg>
