<svg xmlns="http://www.w3.org/2000/svg" width="819" height="1024" viewBox="0 0 819 1024"><path d="M147.01 267.438c0-29.495 23.924-53.417 53.432-53.417h112.295c29.495 0 53.432 23.924 53.432 53.417v424.358c0 29.505-23.924 53.425-53.432 53.425H200.442c-29.495 0-53.432-23.924-53.432-53.425V267.438zM452.99 267.438c0-29.495 23.924-53.417 53.399-53.417h112.302c29.495 0 53.409 23.924 53.409 53.417v424.358c0 29.505-23.912 53.425-53.409 53.425H506.389c-29.49 0-53.409-23.924-53.409-53.425V267.438z"/></svg>