<svg xmlns="http://www.w3.org/2000/svg" width="819" height="1024" viewBox="0 0 819 1024"><path d="M195.945 218.371h452.727c35.966 0 64.683 28.663 64.683 64.104 0 35.449-28.717 63.734-64.683 63.734H195.945c-35.587 0-64.683-28.285-64.683-63.734s29.082-64.104 64.683-64.104zM197.089 431.455h452.727c35.587 0 64.683 28.286 64.683 63.726 0 35.449-29.088 64.129-64.683 64.129H197.089c-35.968 0-64.675-28.67-64.675-64.129 0-35.449 28.705-63.726 64.675-63.726zM196.324 644.158h452.727c35.966 0 64.683 28.663 64.683 64.1 0 35.068-28.717 63.754-64.683 63.754H196.324c-35.968 0-64.675-28.682-64.675-63.754 0-35.439 28.705-64.1 64.675-64.1z"/></svg>