<?xml version="1.0" encoding="utf-8"?>
<!-- Generated by IcoMoon.io -->
<!DOCTYPE svg PUBLIC "-//W3C//DTD SVG 1.1//EN" "http://www.w3.org/Graphics/SVG/1.1/DTD/svg11.dtd">
<svg version="1.1" xmlns="http://www.w3.org/2000/svg" xmlns:xlink="http://www.w3.org/1999/xlink" width="819" height="1024" viewBox="0 0 819 1024">
<g id="icomoon-ignore">
</g>
<path d="M1547.794 814.654c-130.636 0-191.603-153.85-249.651-301.917-52.266-130.636-104.503-264.163-197.414-264.163s-145.148 133.527-197.414 264.163c-58.048 148.039-119.015 301.917-249.651 301.917s-191.603-153.85-249.651-301.917c-52.266-130.636-104.503-264.163-197.414-264.163s-145.148 133.527-197.414 264.163c-58.048 148.039-119.015 301.917-249.651 301.917s-191.603-153.85-249.651-301.917c-52.266-130.636-104.503-264.163-197.414-264.163-17.403 0-29.024-11.621-29.024-29.024s11.621-29.024 29.024-29.024c130.636 0 191.603 153.85 249.651 301.917 52.266 130.636 104.503 264.163 197.414 264.163s145.148-133.527 197.414-264.163c58.048-148.039 119.015-301.917 249.651-301.917s191.603 153.85 249.651 301.917c52.266 130.636 104.503 264.163 197.414 264.163s145.148-133.527 197.414-264.163c58.048-148.039 119.015-301.917 249.651-301.917s191.603 153.85 249.651 301.917c52.266 130.636 104.503 264.163 197.414 264.163 17.403 0 29.024 11.621 29.024 29.024s-11.621 29.024-29.024 29.024z"></path>
</svg>
