<?xml version="1.0" encoding="utf-8"?>
<!-- Generated by IcoMoon.io -->
<!DOCTYPE svg PUBLIC "-//W3C//DTD SVG 1.1//EN" "http://www.w3.org/Graphics/SVG/1.1/DTD/svg11.dtd">
<svg version="1.1" xmlns="http://www.w3.org/2000/svg" xmlns:xlink="http://www.w3.org/1999/xlink" width="1206" height="1024" viewBox="0 0 1206 1024">
<g id="icomoon-ignore">
</g>
<path d="M98.941 666.275c0 12.885 4.665 22.626 14.021 29.237 9.342 6.606 19.326 8.946 29.966 7.002 9.99-1.926 16.994-5.481 21.019-10.638 4.022-5.159 6.034-13.698 6.034-25.614v-140.131c0-9.99-3.468-18.45-10.386-25.362-6.93-6.93-15.39-10.386-25.362-10.386-9.666 0-17.956 3.468-24.894 10.386s-10.386 15.39-10.386 25.362v140.131zM210.078 726.192c0 9.342 3.295 16.353 9.911 21.019s15.066 7.002 25.362 7.002c10.638 0 19.242-2.333 25.856-7.002 6.606-4.664 9.911-11.682 9.911-21.019v-326.653c0-9.666-3.47-17.958-10.386-24.894-6.93-6.93-15.39-10.386-25.362-10.386-9.666 0-17.958 3.47-24.894 10.386-6.93 6.93-10.386 15.216-10.386 24.894v326.653zM320.74 741.659c0 9.342 3.381 16.353 10.144 21.019 6.763 4.664 15.462 7.002 26.091 7.002 10.314 0 18.771-2.333 25.362-7.002 6.606-4.665 9.912-11.682 9.912-21.019v-298.144c0-9.99-3.47-18.522-10.386-25.614-6.93-7.083-15.216-10.638-24.894-10.638-9.99 0-18.522 3.546-25.614 10.638s-10.638 15.625-10.638 25.614v298.144zM431.875 743.101c0 17.724 11.922 26.586 35.766 26.586s35.765-8.862 35.765-26.586v-483.216c0-27.054-8.22-42.354-24.642-45.911-10.638-2.574-21.105 0.486-31.41 9.182s-15.462 20.934-15.462 36.729v483.216zM544.952 757.119v-525.746c0-16.758 4.986-26.73 14.983-29.966 21.582-5.159 43.002-7.725 64.275-7.725 49.29 0 95.203 11.601 137.719 34.794 42.529 23.202 76.915 54.846 103.161 94.951 26.262 40.112 41.481 84.33 45.666 132.643 19.647-8.37 40.59-12.564 62.816-12.564 45.096 0 83.683 15.945 115.725 47.835 32.058 31.892 48.078 70.223 48.078 115.003 0 45.096-16.033 83.601-48.078 115.491s-70.47 47.835-115.255 47.835l-420.399-0.486c-2.898-0.962-5.074-2.741-6.531-5.31s-2.178-4.842-2.178-6.766z"></path>
</svg>
