<svg xmlns="http://www.w3.org/2000/svg" width="819" height="1024" viewBox="0 0 819 1024"><path d="M407.776 122.436c-199.872 0-362.496 162.624-362.496 362.496s162.624 362.496 362.496 362.496 362.496-162.624 362.496-362.496-162.624-362.496-362.496-362.496zm0 669.216c-39.826 0-83.1-74.988-101.902-187.459 32.351-4.849 66.514-7.709 101.902-7.709s69.551 2.9 101.902 7.709c-18.801 112.471-62.075 187.459-101.902 187.459zm0-250.944c-37.837 0-74.271 2.989-108.846 8.152-1.764-20.485-2.674-41.864-2.674-63.896s.91-43.411 2.674-63.896c34.574 5.164 71.009 8.152 108.846 8.152s74.271-2.989 108.846-8.152c1.764 20.485 2.674 41.864 2.674 63.896s-.91 43.411-2.674 63.896c-34.574-5.164-71.009-8.152-108.846-8.152zm-306.72-55.776c0-42.775 8.797-83.471 24.738-120.445 32.174 19.486 72.596 34.896 117.948 45.9-2.175 23.885-3.262 48.848-3.262 74.586s1.087 50.612 3.262 74.586c-45.409 11.052-85.775 26.374-117.948 45.9-15.91-37.023-24.738-77.751-24.738-120.526zm306.72-306.72c39.826 0 83.1 74.988 101.902 187.459-32.351 4.809-66.474 7.709-101.902 7.709s-69.551-2.9-101.902-7.709c18.801-112.471 62.075-187.459 101.902-187.459zm164.066 232.134c45.409-11.052 85.726-26.374 117.948-45.9 15.853 36.886 24.738 77.614 24.738 120.389s-8.797 83.471-24.738 120.437c-32.222-19.478-72.596-34.977-117.948-45.9 2.175-23.876 3.262-48.848 3.262-74.586s-1.087-50.476-3.262-74.408zm91.26-95.07c-26.188 16.361-59.852 29.813-98.51 39.609-10.69-63.936-29.137-118.222-53.198-158.314 62.349 22.515 115.499 64.387 151.709 118.673zM304.191 196.603c-24.062 40.06-42.509 94.346-53.198 158.314-38.69-9.828-72.322-23.248-98.51-39.609 36.209-54.286 89.359-96.158 151.709-118.673zM152.482 654.661c26.188-16.401 59.852-29.821 98.51-39.649 10.69 63.936 29.137 118.222 53.198 158.322-62.349-22.563-115.499-64.436-151.709-118.673zm358.879 118.673c24.062-40.1 42.509-94.386 53.198-158.322 38.69 9.828 72.322 23.248 98.51 39.649-36.209 54.237-89.359 96.11-151.709 118.673z"/></svg>