<?xml version="1.0" encoding="utf-8"?>
<!-- Generated by IcoMoon.io -->
<!DOCTYPE svg PUBLIC "-//W3C//DTD SVG 1.1//EN" "http://www.w3.org/Graphics/SVG/1.1/DTD/svg11.dtd">
<svg version="1.1" xmlns="http://www.w3.org/2000/svg" xmlns:xlink="http://www.w3.org/1999/xlink" width="819" height="1024" viewBox="0 0 819 1024">
<g id="icomoon-ignore">
</g>
<path d="M101.43 276.225c52.513 0 52.513-81.44 0-81.44s-52.515 81.44 0 81.44v0z"></path>
<path d="M333.095 396.461c52.513 0 52.513-81.44 0-81.44s-52.513 81.44 0 81.44v0z"></path>
<path d="M191.809 554.044c52.513 0 52.513-81.44 0-81.44s-52.515 81.44 0 81.44v0z"></path>
<path d="M416.842 520.56c52.513 0 52.513-81.44 0-81.44-52.515 0-52.515 81.44 0 81.44v0z"></path>
<path d="M293.704 643.45c52.513 0 52.513-81.44 0-81.44s-52.513 81.44 0 81.44v0z"></path>
<path d="M270.57 266.116c52.513 0 52.513-81.44 0-81.44s-52.515 81.44 0 81.44v0z"></path>
<path d="M584.308 709.96c52.513 0 52.513-81.44 0-81.44-52.515 0-52.515 81.44 0 81.44v0z"></path>
<path d="M217.083 735.989c52.513 0 52.513-81.44 0-81.44s-52.513 81.44 0 81.44v0z"></path>
<path d="M509.134 822.72c52.513 0 52.513-81.44 0-81.44s-52.513 81.44 0 81.44v0z"></path>
<path d="M191.809 376.22c52.513 0 52.513-81.44 0-81.44s-52.515 81.44 0 81.44v0z"></path>
<path d="M355.873 828.51c52.513 0 52.513-81.44 0-81.44-52.515 0-52.515 81.44 0 81.44v0z"></path>
<path d="M658.033 276.225c52.513 0 52.513-81.44 0-81.44s-52.513 81.44 0 81.44v0z"></path>
<path d="M530.801 335.5c52.513 0 52.513-81.44 0-81.44s-52.513 81.44 0 81.44v0z"></path>
<path d="M741.89 355.741c52.513 0 52.513-81.44 0-81.44s-52.513 81.44 0 81.44v0z"></path>
<path d="M754.895 520.56c52.513 0 52.513-81.44 0-81.44-52.515 0-52.515 81.44 0 81.44v0z"></path>
<path d="M575.624 513.344c52.513 0 52.513-81.44 0-81.44s-52.513 81.44 0 81.44v0z"></path>
<path d="M738.996 777.897c52.513 0 52.513-81.44 0-81.44s-52.513 81.44 0 81.44v0z"></path>
<path d="M721.649 659.35c52.513 0 52.513-81.44 0-81.44s-52.513 81.44 0 81.44v0z"></path>
<path d="M78.295 679.59c52.513 0 52.513-81.44 0-81.44s-52.515 81.44 0 81.44v0z"></path>
<path d="M108.645 824.169c52.513 0 52.513-81.44 0-81.44s-52.513 81.44 0 81.44v0z"></path>
<path d="M416.842 671.691c52.513 0 52.513-81.44 0-81.44-52.515 0-52.515 81.44 0 81.44v0z"></path>
</svg>
